<?xml version="1.0" encoding="iso-8859-1"?>
<!-- Generator: Adobe Illustrator 19.0.0, SVG Export Plug-In . SVG Version: 6.00 Build 0)  -->
<svg version="1.1" id="Layer_1" xmlns="http://www.w3.org/2000/svg" xmlns:xlink="http://www.w3.org/1999/xlink" x="0px" y="0px"
	 viewBox="0 0 512.003 512.003" style="enable-background:new 0 0 512.003 512.003;" xml:space="preserve">
<path style="fill:#5D9BEB;" d="M512.002,256.006c0,141.395-114.606,255.998-255.996,255.994
	C114.607,512.004,0.002,397.402,0.002,256.006C-0.006,114.61,114.607,0,256.006,0C397.396,0,512.002,114.614,512.002,256.006z"/>
<path style="fill:#4988DB;" d="M507.971,301.049c-0.039-0.037-0.076-0.078-0.115-0.115
	c-0.487-0.503-203.148-203.163-203.651-203.651c-12.223-12.608-29.298-20.483-48.203-20.483c-37.053,0-67.2,30.147-67.2,67.2
	c0,19.481,8.341,37.039,21.632,49.316c0.5,0.493,37.777,37.809,38.101,38.114v151.927l-79.511-29.817
	c-3.854-1.433-8.16,0.514-9.614,4.372c-1.197,3.191,0.019,6.59,2.627,8.525c0.425,0.565,39.412,39.598,39.907,39.993l-38.163,14.311
	c-3.86,1.451-5.819,5.753-4.371,9.614c0.515,1.37,1.418,2.462,2.503,3.286c0.427,0.576,0.93,1.065,1.488,1.488
	c0.426,0.574,75.254,75.389,75.812,75.812c0.141,0.19,0.334,0.319,0.491,0.491c5.396,0.339,10.821,0.571,16.303,0.571
	C382.019,512.003,486.679,420.946,507.971,301.049z"/>
<path style="fill:#F4F6F9;" d="M348.223,420.739l-70.953-26.607l70.953-26.607c3.861-1.451,5.819-5.754,4.371-9.614
	c-1.447-3.857-5.757-5.804-9.614-4.371l-79.513,29.815V210.757c33.548-3.73,59.733-32.234,59.733-66.759
	c0-37.053-30.147-67.2-67.2-67.2s-67.2,30.147-67.2,67.2c0,34.526,26.186,63.029,59.733,66.759v172.598l-79.511-29.817
	c-3.854-1.433-8.159,0.514-9.614,4.371c-1.447,3.861,0.511,8.163,4.371,9.614l70.953,26.607l-70.953,26.607
	c-3.861,1.451-5.819,5.754-4.371,9.614c1.126,2.997,3.97,4.849,6.993,4.849c0.871,0,1.757-0.157,2.622-0.478l86.977-32.615
	l86.978,32.617c0.864,0.321,1.75,0.478,2.622,0.478c3.022,0,5.867-1.852,6.993-4.849
	C354.042,426.492,352.084,422.19,348.223,420.739z M203.735,143.998c0-28.82,23.446-52.267,52.267-52.267
	s52.267,23.446,52.267,52.267s-23.446,52.267-52.267,52.267S203.735,172.818,203.735,143.998z"/>
<g>
</g>
<g>
</g>
<g>
</g>
<g>
</g>
<g>
</g>
<g>
</g>
<g>
</g>
<g>
</g>
<g>
</g>
<g>
</g>
<g>
</g>
<g>
</g>
<g>
</g>
<g>
</g>
<g>
</g>
</svg>
